Coordinates
version=1
nRows=6
nColumns=36
inDegrees=yes

Units are S.I. units (second, meters, Newtons, ...)
If the header above contains a line with 'inDegrees', this indicates whether rotational values are in degrees (yes) or radians (no).

endheader
time	pelvis_tilt	pelvis_list	pelvis_rotation	pelvis_tx	pelvis_ty	pelvis_tz	hip_flexion_r	hip_adduction_r	hip_rotation_r	knee_angle_r	knee_angle_r_beta	ankle_angle_r	subtalar_angle_r	mtp_angle_r	hip_flexion_l	hip_adduction_l	hip_rotation_l	knee_angle_l	knee_angle_l_beta	ankle_angle_l	subtalar_angle_l	mtp_angle_l	lumbar_extension	lumbar_bending	lumbar_rotation	arm_flex_r	arm_add_r	arm_rot_r	elbow_flex_r	pro_sup_r	arm_flex_l	arm_add_l	arm_rot_l	elbow_flex_l	pro_sup_l
      3.76666670	     -9.10616445	      0.05274127	      3.41701202	      0.78941895	      0.82422663	      0.38642194	     42.23430904	     -4.77382361	     -0.82301381	     69.14993487	      1.20689404	     37.85123783	     -6.85201962	     -7.49999987	     45.36042432	     -3.31408343	      4.04592233	     76.23780442	      1.33060070	     30.41963321	    -14.30324420	     -7.49999987	     -6.26808765	      3.48804273	     -5.89488631	      1.85242446	    -18.88765298	   -356.79564821	    109.84994870	     85.49281607	     18.34620777	    -24.22763997	     35.47633573	     96.91375911	     90.28434286
      3.78333330	     -9.17307733	      0.00054329	      3.60584771	      0.79426188	      0.82267227	      0.38848944	     43.06306707	     -4.63453128	     -0.56447163	     70.66556550	      1.23334679	     39.74588402	     -6.33831901	     -7.49999987	     47.16477970	     -3.38920136	      4.19130106	     78.57870041	      1.37145704	     30.11710582	    -14.29850333	     -7.49999987	     -6.24806950	      3.40940544	     -4.82446627	      3.12755716	    -17.60867180	   -355.31656440	    106.58875338	     85.82150632	     19.14901969	    -22.28928999	     36.54815269	     96.90039290	     90.25616449
      3.80000000	     -8.98633769	      0.01930291	      3.76149365	      0.80235749	      0.82153763	      0.38360635	     42.74346558	     -4.66809234	     -0.46232939	     71.06649711	      1.24034436	     40.75792607	     -6.09922825	     -7.49999987	     47.39969061	     -3.24961155	      4.34598400	     79.21177121	      1.38250621	     29.96952864	    -14.19495058	     -7.49999987	     -5.76602566	      3.45786697	     -4.04838506	      3.14671379	    -16.96853153	   -354.22926271	    105.82985818	     86.07777096	     18.95146948	    -20.48913852	     37.13982142	     97.92505453	     90.29856588
      3.81666670	     -8.95402082	      0.06104213	      3.94381723	      0.79797884	      0.82608978	      0.38597636	     42.11415548	     -4.67399408	     -0.42701981	     70.65152678	      1.23310176	     41.12785825	     -6.17354179	     -7.49999987	     47.10244615	     -3.06777311	      4.53084177	     78.73832423	      1.37424301	     29.59401571	    -13.89198226	     -7.49999987	     -4.78240101	      3.50697459	     -3.50991409	      3.19607536	    -16.29576195	   -353.35068905	    105.74996092	     86.19637310	     18.82838540	    -18.99682134	     37.73789667	     98.94608133	     90.35879087
      3.83333330	     -8.89033285	      0.06876006	      4.04615057	      0.80191250	      0.82835708	      0.38316808	     41.35912343	     -4.70607027	     -0.48774669	     70.06392980	      1.22284626	     41.12131740	     -6.21062994	     -7.49999987	     46.37763518	     -2.95117877	      4.65869299	     77.67460004	      1.35567752	     29.05893042	    -13.72596277	     -7.49999987	     -3.57563763	      3.71042458	     -3.14674177	      3.94013700	    -16.73196344	   -350.87955782	    106.20226459	     85.92234517	     18.30560239	    -18.07422557	     38.56637543	    101.19943961	     89.85536946
      3.85000000	     -8.90571962	      0.09909908	      4.22126317	      0.80786139	      0.83515031	      0.38559193	     40.41801012	     -4.76736661	     -0.59215651	     68.92919634	      1.20304143	     40.91236708	     -6.42097684	     -7.49999987	     45.16014535	     -2.85924309	      4.75981030	     75.82488433	      1.32339389	     28.67255366	    -13.38450802	     -7.49999987	     -1.89478160	      3.66451784	     -2.80737555	      3.51211575	    -16.51147219	   -350.17388618	    106.78290975	     86.09484025	     17.55377741	    -17.21368208	     38.99654228	    101.97947056	     89.98955412
